<svg width="56" height="56" viewBox="0 0 56 56" fill="none" xmlns="http://www.w3.org/2000/svg">
<path d="M0 11.2C0 5.01441 5.01441 0 11.2 0H44.8C50.9856 0 56 5.01441 56 11.2V44.8C56 50.9856 50.9856 56 44.8 56H11.2C5.01441 56 0 50.9856 0 44.8V11.2Z" fill="url(#paint0_linear_330_1560)"/>
<path d="M28.1594 18.9937L23.6219 22.6687C22.8672 23.2781 22.7219 24.375 23.2938 25.1578C23.8984 25.9922 25.075 26.1562 25.8859 25.5234L30.5406 21.9047C30.8688 21.6516 31.3375 21.7078 31.5953 22.0359C31.8531 22.3641 31.7922 22.8328 31.4641 23.0906L30.4844 23.85L37 29.85V21H36.9672L36.7844 20.8828L33.3812 18.7031C32.6641 18.2437 31.825 18 30.9719 18C29.95 18 28.9562 18.3516 28.1594 18.9937ZM29.2281 24.825L26.8047 26.7094C25.3281 27.8625 23.1859 27.5625 22.0797 26.0437C21.0391 24.6141 21.3016 22.6172 22.675 21.5062L26.575 18.3516C26.0312 18.1219 25.4453 18.0047 24.85 18.0047C23.9688 18 23.1109 18.2625 22.375 18.75L19 21V31.5H20.3219L24.6063 35.4094C25.525 36.2484 26.9453 36.1828 27.7844 35.2641C28.0422 34.9781 28.2156 34.6453 28.3047 34.2984L29.1016 35.0297C30.0156 35.8687 31.4406 35.8078 32.2797 34.8937C32.4906 34.6641 32.6453 34.3969 32.7438 34.1203C33.6531 34.7297 34.8906 34.6031 35.6547 33.7687C36.4937 32.8547 36.4328 31.4297 35.5187 30.5906L29.2281 24.825ZM13.75 21C13.3375 21 13 21.3375 13 21.75V31.5C13 32.3297 13.6703 33 14.5 33H16C16.8297 33 17.5 32.3297 17.5 31.5V21H13.75ZM15.25 30C15.4489 30 15.6397 30.079 15.7803 30.2197C15.921 30.3603 16 30.5511 16 30.75C16 30.9489 15.921 31.1397 15.7803 31.2803C15.6397 31.421 15.4489 31.5 15.25 31.5C15.0511 31.5 14.8603 31.421 14.7197 31.2803C14.579 31.1397 14.5 30.9489 14.5 30.75C14.5 30.5511 14.579 30.3603 14.7197 30.2197C14.8603 30.079 15.0511 30 15.25 30ZM38.5 21V31.5C38.5 32.3297 39.1703 33 40 33H41.5C42.3297 33 43 32.3297 43 31.5V21.75C43 21.3375 42.6625 21 42.25 21H38.5ZM40 30.75C40 30.5511 40.079 30.3603 40.2197 30.2197C40.3603 30.079 40.5511 30 40.75 30C40.9489 30 41.1397 30.079 41.2803 30.2197C41.421 30.3603 41.5 30.5511 41.5 30.75C41.5 30.9489 41.421 31.1397 41.2803 31.2803C41.1397 31.421 40.9489 31.5 40.75 31.5C40.5511 31.5 40.3603 31.421 40.2197 31.2803C40.079 31.1397 40 30.9489 40 30.75Z" fill="white"/>
<defs>
<linearGradient id="paint0_linear_330_1560" x1="0" y1="28" x2="56" y2="28" gradientUnits="userSpaceOnUse">
<stop stop-color="#14213D"/>
<stop offset="1" stop-color="#1E3A8A"/>
</linearGradient>
</defs>
</svg>
