<svg width="56" height="56" viewBox="0 0 56 56" fill="none" xmlns="http://www.w3.org/2000/svg">
<path d="M0 11.2C0 5.01441 5.01441 0 11.2 0H44.8C50.9856 0 56 5.01441 56 11.2V44.8C56 50.9856 50.9856 56 44.8 56H11.2C5.01441 56 0 50.9856 0 44.8V11.2Z" fill="url(#paint0_linear_330_1578)"/>
<path d="M19 17.5C17.3453 17.5 16 18.8453 16 20.5V35.5C16 37.1547 17.3453 38.5 19 38.5H37C38.6547 38.5 40 37.1547 40 35.5V25C40 23.3453 38.6547 22 37 22H19.75C19.3375 22 19 21.6625 19 21.25C19 20.8375 19.3375 20.5 19.75 20.5H37C37.8297 20.5 38.5 19.8297 38.5 19C38.5 18.1703 37.8297 17.5 37 17.5H19ZM35.5 28.75C35.8978 28.75 36.2794 28.908 36.5607 29.1893C36.842 29.4706 37 29.8522 37 30.25C37 30.6478 36.842 31.0294 36.5607 31.3107C36.2794 31.592 35.8978 31.75 35.5 31.75C35.1022 31.75 34.7206 31.592 34.4393 31.3107C34.158 31.0294 34 30.6478 34 30.25C34 29.8522 34.158 29.4706 34.4393 29.1893C34.7206 28.908 35.1022 28.75 35.5 28.75Z" fill="white"/>
<defs>
<linearGradient id="paint0_linear_330_1578" x1="0" y1="28" x2="56" y2="28" gradientUnits="userSpaceOnUse">
<stop stop-color="#FCA311"/>
<stop offset="1" stop-color="#FACC15"/>
</linearGradient>
</defs>
</svg>
