<svg width="97" height="96" viewBox="0 0 97 96" fill="none" xmlns="http://www.w3.org/2000/svg">
<path d="M0.914062 48C0.914062 21.4903 22.4044 0 48.9141 0C75.4237 0 96.9141 21.4903 96.9141 48C96.9141 74.5097 75.4237 96 48.9141 96C22.4044 96 0.914062 74.5097 0.914062 48Z" fill="url(#paint0_linear_328_428)"/>
<g clip-path="url(#clip0_328_428)">
<path d="M36.2109 40.25C36.2109 38.2609 37.0011 36.3532 38.4076 34.9467C39.8142 33.5402 41.7218 32.75 43.7109 32.75C45.7001 32.75 47.6077 33.5402 49.0142 34.9467C50.4208 36.3532 51.2109 38.2609 51.2109 40.25C51.2109 42.2391 50.4208 44.1468 49.0142 45.5533C47.6077 46.9598 45.7001 47.75 43.7109 47.75C41.7218 47.75 39.8142 46.9598 38.4076 45.5533C37.0011 44.1468 36.2109 42.2391 36.2109 40.25ZM30.5859 61.0098C30.5859 55.2383 35.2617 50.5625 41.0332 50.5625H46.3887C52.1602 50.5625 56.8359 55.2383 56.8359 61.0098C56.8359 61.9707 56.0566 62.75 55.0957 62.75H32.3262C31.3652 62.75 30.5859 61.9707 30.5859 61.0098ZM60.1172 51.0312V47.2812H56.3672C55.5879 47.2812 54.9609 46.6543 54.9609 45.875C54.9609 45.0957 55.5879 44.4688 56.3672 44.4688H60.1172V40.7188C60.1172 39.9395 60.7441 39.3125 61.5234 39.3125C62.3027 39.3125 62.9297 39.9395 62.9297 40.7188V44.4688H66.6797C67.459 44.4688 68.0859 45.0957 68.0859 45.875C68.0859 46.6543 67.459 47.2812 66.6797 47.2812H62.9297V51.0312C62.9297 51.8105 62.3027 52.4375 61.5234 52.4375C60.7441 52.4375 60.1172 51.8105 60.1172 51.0312Z" fill="white"/>
</g>
<defs>
<linearGradient id="paint0_linear_328_428" x1="0.914062" y1="48" x2="96.9141" y2="48" gradientUnits="userSpaceOnUse">
<stop stop-color="#FCA311"/>
<stop offset="1" stop-color="#FACC15"/>
</linearGradient>
<clipPath id="clip0_328_428">
<rect width="37.5" height="30" fill="white" transform="translate(30.5859 32.75)"/>
</clipPath>
</defs>
</svg>
