<svg width="97" height="96" viewBox="0 0 97 96" fill="none" xmlns="http://www.w3.org/2000/svg">
<path d="M0.242188 48C0.242188 21.4903 21.7325 0 48.2422 0C74.7519 0 96.2422 21.4903 96.2422 48C96.2422 74.5097 74.7519 96 48.2422 96C21.7325 96 0.242188 74.5097 0.242188 48Z" fill="url(#paint0_linear_328_434)"/>
<g clip-path="url(#clip0_328_434)">
<path d="M63.2422 37.4375C63.2422 38.4922 62.4043 39.4648 60.9922 40.25C59.2871 41.1934 56.7441 41.8613 53.8262 42.0605C53.6094 41.9551 53.3926 41.8555 53.1641 41.7676C50.8555 40.8008 47.7852 40.25 44.4922 40.25C44.0059 40.25 43.5312 40.2617 43.0566 40.2852L42.9922 40.25C41.5801 39.4648 40.7422 38.4922 40.7422 37.4375C40.7422 34.8477 45.7812 32.75 51.9922 32.75C58.2031 32.75 63.2422 34.8477 63.2422 37.4375ZM42.6582 42.1895C43.2559 42.1484 43.8711 42.125 44.4922 42.125C48.1367 42.125 51.3711 42.8457 53.4277 43.9648C54.8809 44.7559 55.7422 45.7402 55.7422 46.8125C55.7422 47.0469 55.7012 47.2754 55.6191 47.498C55.3496 48.2715 54.623 48.9805 53.5684 49.5781C53.5625 49.584 53.5508 49.584 53.5449 49.5898C53.5273 49.6016 53.5098 49.6074 53.4922 49.6191C51.4414 50.7559 48.1719 51.4941 44.4922 51.4941C41 51.4941 37.877 50.832 35.8086 49.7891C35.6973 49.7363 35.5918 49.6777 35.4863 49.6191C34.0801 48.8398 33.2422 47.8672 33.2422 46.8125C33.2422 44.7734 36.3711 43.0332 40.7422 42.3945C41.3574 42.3066 41.9961 42.2363 42.6582 42.1895ZM57.6172 46.8125C57.6172 45.5293 56.9961 44.4746 56.2051 43.6836C57.8633 43.4258 59.3809 43.0156 60.6699 42.4824C61.625 42.084 62.5156 41.5918 63.2422 40.9883V43.0625C63.2422 44.1934 62.2754 45.2363 60.6758 46.0449C59.8203 46.4785 58.7773 46.8477 57.6055 47.1289C57.6113 47.0234 57.6172 46.9238 57.6172 46.8184V46.8125ZM55.7422 52.4375C55.7422 53.4922 54.9043 54.4648 53.4922 55.25C53.3867 55.3086 53.2812 55.3613 53.1699 55.4199C51.1074 56.4629 47.9844 57.125 44.4922 57.125C40.8125 57.125 37.543 56.3867 35.4922 55.25C34.0801 54.4648 33.2422 53.4922 33.2422 52.4375V50.3633C33.9746 50.9668 34.8594 51.459 35.8145 51.8574C38.1289 52.8242 41.1992 53.375 44.4922 53.375C47.7852 53.375 50.8555 52.8242 53.1699 51.8574C53.627 51.6699 54.0664 51.4531 54.4824 51.2188C54.8398 51.0195 55.1738 50.7969 55.4902 50.5625C55.5781 50.498 55.6602 50.4277 55.7422 50.3633V50.5625V50.8965V52.4375ZM57.6172 52.4375V50.5625V49.0449C58.7305 48.7988 59.7559 48.4883 60.6699 48.1074C61.625 47.709 62.5156 47.2168 63.2422 46.6133V48.6875C63.2422 49.3027 62.9492 49.918 62.3691 50.498C61.4141 51.4531 59.7324 52.2383 57.6055 52.748C57.6113 52.6484 57.6172 52.543 57.6172 52.4375ZM44.4922 59C47.7852 59 50.8555 58.4492 53.1699 57.4824C54.125 57.084 55.0156 56.5918 55.7422 55.9883V58.0625C55.7422 60.6523 50.7031 62.75 44.4922 62.75C38.2812 62.75 33.2422 60.6523 33.2422 58.0625V55.9883C33.9746 56.5918 34.8594 57.084 35.8145 57.4824C38.1289 58.4492 41.1992 59 44.4922 59Z" fill="white"/>
</g>
<defs>
<linearGradient id="paint0_linear_328_434" x1="0.242188" y1="48" x2="96.2422" y2="48" gradientUnits="userSpaceOnUse">
<stop stop-color="#FCA311"/>
<stop offset="1" stop-color="#FACC15"/>
</linearGradient>
<clipPath id="clip0_328_434">
<rect width="30" height="30" fill="white" transform="translate(33.2422 32.75)"/>
</clipPath>
</defs>
</svg>
