<svg width="97" height="96" viewBox="0 0 97 96" fill="none" xmlns="http://www.w3.org/2000/svg">
<path d="M0.570312 48C0.570312 21.4903 22.0606 0 48.5703 0C75.08 0 96.5703 21.4903 96.5703 48C96.5703 74.5097 75.08 96 48.5703 96C22.0606 96 0.570312 74.5097 0.570312 48Z" fill="url(#paint0_linear_328_431)"/>
<g clip-path="url(#clip0_328_431)">
<path d="M48.7695 37.7422L43.0977 42.3359C42.1543 43.0977 41.9727 44.4687 42.6875 45.4473C43.4434 46.4902 44.9141 46.6953 45.9277 45.9043L51.7461 41.3809C52.1562 41.0645 52.7422 41.1348 53.0645 41.5449C53.3867 41.9551 53.3105 42.541 52.9004 42.8633L51.6758 43.8125L59.8203 51.3125V40.25H59.7793L59.5508 40.1035L55.2969 37.3789C54.4004 36.8047 53.3516 36.5 52.2852 36.5C51.0078 36.5 49.7656 36.9395 48.7695 37.7422ZM50.1055 45.0312L47.0762 47.3867C45.2305 48.8281 42.5527 48.4531 41.1699 46.5547C39.8691 44.7676 40.1973 42.2715 41.9141 40.8828L46.7891 36.9395C46.1094 36.6523 45.377 36.5059 44.6328 36.5059C43.5312 36.5 42.459 36.8281 41.5391 37.4375L37.3203 40.25V53.375H38.9727L44.3281 58.2617C45.4766 59.3105 47.252 59.2285 48.3008 58.0801C48.623 57.7227 48.8398 57.3066 48.9512 56.873L49.9473 57.7871C51.0898 58.8359 52.8711 58.7598 53.9199 57.6172C54.1836 57.3301 54.377 56.9961 54.5 56.6504C55.6367 57.4121 57.1836 57.2539 58.1387 56.2109C59.1875 55.0684 59.1113 53.2871 57.9688 52.2383L50.1055 45.0312ZM30.7578 40.25C30.2422 40.25 29.8203 40.6719 29.8203 41.1875V53.375C29.8203 54.4121 30.6582 55.25 31.6953 55.25H33.5703C34.6074 55.25 35.4453 54.4121 35.4453 53.375V40.25H30.7578ZM32.6328 51.5C32.8815 51.5 33.1199 51.5988 33.2957 51.7746C33.4715 51.9504 33.5703 52.1889 33.5703 52.4375C33.5703 52.6861 33.4715 52.9246 33.2957 53.1004C33.1199 53.2762 32.8815 53.375 32.6328 53.375C32.3842 53.375 32.1457 53.2762 31.9699 53.1004C31.7941 52.9246 31.6953 52.6861 31.6953 52.4375C31.6953 52.1889 31.7941 51.9504 31.9699 51.7746C32.1457 51.5988 32.3842 51.5 32.6328 51.5ZM61.6953 40.25V53.375C61.6953 54.4121 62.5332 55.25 63.5703 55.25H65.4453C66.4824 55.25 67.3203 54.4121 67.3203 53.375V41.1875C67.3203 40.6719 66.8984 40.25 66.3828 40.25H61.6953ZM63.5703 52.4375C63.5703 52.1889 63.6691 51.9504 63.8449 51.7746C64.0207 51.5988 64.2592 51.5 64.5078 51.5C64.7565 51.5 64.9949 51.5988 65.1707 51.7746C65.3465 51.9504 65.4453 52.1889 65.4453 52.4375C65.4453 52.6861 65.3465 52.9246 65.1707 53.1004C64.9949 53.2762 64.7565 53.375 64.5078 53.375C64.2592 53.375 64.0207 53.2762 63.8449 53.1004C63.6691 52.9246 63.5703 52.6861 63.5703 52.4375Z" fill="white"/>
</g>
<defs>
<linearGradient id="paint0_linear_328_431" x1="0.570312" y1="48" x2="96.5703" y2="48" gradientUnits="userSpaceOnUse">
<stop stop-color="#14213D"/>
<stop offset="1" stop-color="#2563EB"/>
</linearGradient>
<clipPath id="clip0_328_431">
<rect width="37.5" height="30" fill="white" transform="translate(29.8203 32.75)"/>
</clipPath>
</defs>
</svg>
