<svg width="48" height="48" viewBox="0 0 48 48" fill="none" xmlns="http://www.w3.org/2000/svg">
<path d="M0 8C0 3.58172 3.58172 0 8 0H40C44.4183 0 48 3.58172 48 8V40C48 44.4183 44.4183 48 40 48H8C3.58172 48 0 44.4183 0 40V8Z" fill="url(#paint0_linear_37_765)"/>
<g clip-path="url(#clip0_37_765)">
<path d="M24 13.5C24.6914 13.5 25.25 14.0586 25.25 14.75V16.1445C25.3125 16.1523 25.3711 16.1602 25.4336 16.1719C25.4492 16.1758 25.4609 16.1758 25.4766 16.1797L27.3516 16.5234C28.0312 16.6484 28.4805 17.3008 28.3555 17.9766C28.2305 18.6523 27.5781 19.1055 26.9023 18.9805L25.0469 18.6406C23.8242 18.4609 22.7461 18.582 21.9883 18.8828C21.2305 19.1836 20.9258 19.5977 20.8555 19.9805C20.7773 20.3984 20.8359 20.6328 20.9023 20.7773C20.9727 20.9297 21.1172 21.1016 21.4023 21.293C22.0391 21.7109 23.0156 21.9844 24.2812 22.3203L24.3945 22.3516C25.5117 22.6484 26.8789 23.0078 27.8945 23.6719C28.4492 24.0352 28.9727 24.5273 29.2969 25.2148C29.6289 25.9141 29.6992 26.6953 29.5469 27.5273C29.2773 29.0117 28.2539 30.0039 26.9844 30.5234C26.4492 30.7422 25.8672 30.8828 25.25 30.9531V32.25C25.25 32.9414 24.6914 33.5 24 33.5C23.3086 33.5 22.75 32.9414 22.75 32.25V30.8867C22.7344 30.8828 22.7148 30.8828 22.6992 30.8789H22.6914C21.7383 30.7305 20.1719 30.3203 19.1172 29.8516C18.4883 29.5703 18.2031 28.832 18.4844 28.2031C18.7656 27.5742 19.5039 27.2891 20.1328 27.5703C20.9492 27.9336 22.293 28.293 23.0703 28.4141C24.3164 28.5977 25.3437 28.4922 26.0391 28.207C26.6992 27.9375 27 27.5469 27.0859 27.0781C27.1602 26.6641 27.1016 26.4258 27.0352 26.2812C26.9609 26.125 26.8164 25.9531 26.5273 25.7617C25.8867 25.3438 24.9062 25.0703 23.6367 24.7344L23.5273 24.707C22.4141 24.4102 21.0469 24.0469 20.0312 23.3828C19.4766 23.0195 18.957 22.5234 18.6328 21.8359C18.3047 21.1367 18.2383 20.3555 18.3945 19.5234C18.6758 18.0312 19.793 17.0625 21.0625 16.5586C21.582 16.3516 22.1523 16.2109 22.75 16.1289V14.75C22.75 14.0586 23.3086 13.5 24 13.5Z" fill="white"/>
</g>
<defs>
<linearGradient id="paint0_linear_37_765" x1="0" y1="24" x2="48" y2="24" gradientUnits="userSpaceOnUse">
<stop stop-color="#FCA311"/>
<stop offset="1" stop-color="#FACC15"/>
</linearGradient>
<clipPath id="clip0_37_765">
<rect width="12.5" height="20" fill="white" transform="translate(17.75 13.5)"/>
</clipPath>
</defs>
</svg>
