<svg width="48" height="48" viewBox="0 0 48 48" fill="none" xmlns="http://www.w3.org/2000/svg">
<path d="M0 8C0 3.58172 3.58172 0 8 0H40C44.4183 0 48 3.58172 48 8V40C48 44.4183 44.4183 48 40 48H8C3.58172 48 0 44.4183 0 40V8Z" fill="url(#paint0_linear_37_754)"/>
<g clip-path="url(#clip0_37_754)">
<path d="M25.1289 14.2031C24.9219 13.7734 24.4844 13.5 24.0039 13.5C23.5234 13.5 23.0899 13.7734 22.8789 14.2031L20.3672 19.3711L14.7578 20.1992C14.2891 20.2695 13.8984 20.5977 13.7539 21.0469C13.6094 21.4961 13.7266 21.9922 14.0625 22.3242L18.1328 26.3516L17.1719 32.043C17.0938 32.5117 17.2891 32.9883 17.6758 33.2656C18.0625 33.543 18.5742 33.5781 18.9961 33.3555L24.0078 30.6797L29.0195 33.3555C29.4414 33.5781 29.9531 33.5469 30.3399 33.2656C30.7266 32.9844 30.9219 32.5117 30.8438 32.043L29.8789 26.3516L33.9492 22.3242C34.2852 21.9922 34.4063 21.4961 34.2578 21.0469C34.1094 20.5977 33.7227 20.2695 33.2539 20.1992L27.6406 19.3711L25.1289 14.2031Z" fill="white"/>
</g>
<defs>
<linearGradient id="paint0_linear_37_754" x1="0" y1="24" x2="48" y2="24" gradientUnits="userSpaceOnUse">
<stop stop-color="#FCA311"/>
<stop offset="1" stop-color="#FACC15"/>
</linearGradient>
<clipPath id="clip0_37_754">
<rect width="22.5" height="20" fill="white" transform="translate(12.75 13.5)"/>
</clipPath>
</defs>
</svg>
