<svg width="48" height="48" viewBox="0 0 48 48" fill="none" xmlns="http://www.w3.org/2000/svg">
<path d="M0 8C0 3.58172 3.58172 0 8 0H40C44.4183 0 48 3.58172 48 8V40C48 44.4183 44.4183 48 40 48H8C3.58172 48 0 44.4183 0 40V8Z" fill="url(#paint0_linear_37_787)"/>
<g clip-path="url(#clip0_37_787)">
<path d="M20.1172 28.5352L18.9102 27.3281C18.5781 26.9961 18.4609 26.5156 18.6094 26.0703C18.7266 25.7227 18.8828 25.2696 19.0703 24.75H14.9375C14.6016 24.75 14.2891 24.5703 14.1211 24.2774C13.9531 23.9844 13.957 23.625 14.1289 23.336L16.1797 19.8789C16.6875 19.0235 17.6055 18.5 18.5977 18.5H21.8125C21.9063 18.3438 22 18.1992 22.0938 18.0586C25.293 13.3399 30.0586 13.1836 32.9024 13.7071C33.3555 13.7891 33.707 14.1446 33.793 14.5977C34.3164 17.4453 34.1563 22.2071 29.4414 25.4063C29.3047 25.5 29.1563 25.5938 29 25.6875V28.9024C29 29.8946 28.4766 30.8164 27.6211 31.3203L24.1641 33.3711C23.875 33.543 23.5156 33.5469 23.2227 33.3789C22.9297 33.211 22.75 32.9024 22.75 32.5625V28.375C22.1992 28.5664 21.7188 28.7227 21.3555 28.8399C20.918 28.9805 20.4414 28.8594 20.1133 28.5352H20.1172ZM29 20.0625C29.4144 20.0625 29.8118 19.8979 30.1049 19.6049C30.3979 19.3119 30.5625 18.9144 30.5625 18.5C30.5625 18.0856 30.3979 17.6882 30.1049 17.3952C29.8118 17.1021 29.4144 16.9375 29 16.9375C28.5856 16.9375 28.1882 17.1021 27.8952 17.3952C27.6021 17.6882 27.4375 18.0856 27.4375 18.5C27.4375 18.9144 27.6021 19.3119 27.8952 19.6049C28.1882 19.8979 28.5856 20.0625 29 20.0625Z" fill="white"/>
</g>
<defs>
<linearGradient id="paint0_linear_37_787" x1="0" y1="24" x2="48" y2="24" gradientUnits="userSpaceOnUse">
<stop stop-color="#FCA311"/>
<stop offset="1" stop-color="#FACC15"/>
</linearGradient>
<clipPath id="clip0_37_787">
<rect width="20" height="20" fill="white" transform="translate(14 13.5)"/>
</clipPath>
</defs>
</svg>
