<svg width="48" height="48" viewBox="0 0 48 48" fill="none" xmlns="http://www.w3.org/2000/svg">
<path d="M0 8C0 3.58172 3.58172 0 8 0H40C44.4183 0 48 3.58172 48 8V40C48 44.4183 44.4183 48 40 48H8C3.58172 48 0 44.4183 0 40V8Z" fill="url(#paint0_linear_37_776)"/>
<g clip-path="url(#clip0_37_776)">
<path d="M24 13.5C24.6914 13.5 25.25 14.0586 25.25 14.75V17.25H29.9375C31.4922 17.25 32.75 18.5078 32.75 20.0625V30.6875C32.75 32.2422 31.4922 33.5 29.9375 33.5H18.0625C16.5078 33.5 15.25 32.2422 15.25 30.6875V20.0625C15.25 18.5078 16.5078 17.25 18.0625 17.25H22.75V14.75C22.75 14.0586 23.3086 13.5 24 13.5ZM19.625 28.5C19.2812 28.5 19 28.7812 19 29.125C19 29.4688 19.2812 29.75 19.625 29.75H20.875C21.2188 29.75 21.5 29.4688 21.5 29.125C21.5 28.7812 21.2188 28.5 20.875 28.5H19.625ZM23.375 28.5C23.0312 28.5 22.75 28.7812 22.75 29.125C22.75 29.4688 23.0312 29.75 23.375 29.75H24.625C24.9688 29.75 25.25 29.4688 25.25 29.125C25.25 28.7812 24.9688 28.5 24.625 28.5H23.375ZM27.125 28.5C26.7812 28.5 26.5 28.7812 26.5 29.125C26.5 29.4688 26.7812 29.75 27.125 29.75H28.375C28.7188 29.75 29 29.4688 29 29.125C29 28.7812 28.7188 28.5 28.375 28.5H27.125ZM21.8125 23.5C21.8125 23.0856 21.6479 22.6882 21.3549 22.3951C21.0618 22.1021 20.6644 21.9375 20.25 21.9375C19.8356 21.9375 19.4382 22.1021 19.1451 22.3951C18.8521 22.6882 18.6875 23.0856 18.6875 23.5C18.6875 23.9144 18.8521 24.3118 19.1451 24.6049C19.4382 24.8979 19.8356 25.0625 20.25 25.0625C20.6644 25.0625 21.0618 24.8979 21.3549 24.6049C21.6479 24.3118 21.8125 23.9144 21.8125 23.5ZM27.75 25.0625C28.1644 25.0625 28.5618 24.8979 28.8549 24.6049C29.1479 24.3118 29.3125 23.9144 29.3125 23.5C29.3125 23.0856 29.1479 22.6882 28.8549 22.3951C28.5618 22.1021 28.1644 21.9375 27.75 21.9375C27.3356 21.9375 26.9382 22.1021 26.6451 22.3951C26.3521 22.6882 26.1875 23.0856 26.1875 23.5C26.1875 23.9144 26.3521 24.3118 26.6451 24.6049C26.9382 24.8979 27.3356 25.0625 27.75 25.0625ZM13.375 22.25H14V29.75H13.375C12.3398 29.75 11.5 28.9102 11.5 27.875V24.125C11.5 23.0898 12.3398 22.25 13.375 22.25ZM34.625 22.25C35.6602 22.25 36.5 23.0898 36.5 24.125V27.875C36.5 28.9102 35.6602 29.75 34.625 29.75H34V22.25H34.625Z" fill="white"/>
</g>
<defs>
<linearGradient id="paint0_linear_37_776" x1="0" y1="24" x2="48" y2="24" gradientUnits="userSpaceOnUse">
<stop stop-color="#FCA311"/>
<stop offset="1" stop-color="#FACC15"/>
</linearGradient>
<clipPath id="clip0_37_776">
<rect width="25" height="20" fill="white" transform="translate(11.5 13.5)"/>
</clipPath>
</defs>
</svg>
