<svg width="46" height="46" viewBox="0 0 46 46" fill="none" xmlns="http://www.w3.org/2000/svg">
<path d="M0 9.2C0 4.11898 4.11898 0 9.2 0H36.8C41.881 0 46 4.11898 46 9.2V36.8C46 41.881 41.881 46 36.8 46H9.2C4.11898 46 0 41.881 0 36.8V9.2Z" fill="url(#paint0_linear_10_2989)"/>
<g clip-path="url(#clip0_10_2989)">
<path d="M16.5312 15.3093C15.3419 15.3093 14.375 16.2763 14.375 17.4656V28.2468C14.375 29.4361 15.3419 30.4031 16.5312 30.4031H29.4688C30.6581 30.4031 31.625 29.4361 31.625 28.2468V20.7C31.625 19.5106 30.6581 18.5437 29.4688 18.5437H17.0703C16.7738 18.5437 16.5312 18.3011 16.5312 18.0046C16.5312 17.7082 16.7738 17.4656 17.0703 17.4656H29.4688C30.0651 17.4656 30.5469 16.9838 30.5469 16.3875C30.5469 15.7911 30.0651 15.3093 29.4688 15.3093H16.5312ZM28.3906 23.3953C28.6766 23.3953 28.9508 23.5089 29.153 23.711C29.3552 23.9132 29.4688 24.1875 29.4688 24.4734C29.4688 24.7593 29.3552 25.0336 29.153 25.2357C28.9508 25.4379 28.6766 25.5515 28.3906 25.5515C28.1047 25.5515 27.8305 25.4379 27.6283 25.2357C27.4261 25.0336 27.3125 24.7593 27.3125 24.4734C27.3125 24.1875 27.4261 23.9132 27.6283 23.711C27.8305 23.5089 28.1047 23.3953 28.3906 23.3953Z" fill="white"/>
</g>
<defs>
<linearGradient id="paint0_linear_10_2989" x1="0" y1="23" x2="46" y2="23" gradientUnits="userSpaceOnUse">
<stop stop-color="#14213D"/>
<stop offset="1" stop-color="#1E3A8A"/>
</linearGradient>
<clipPath id="clip0_10_2989">
<rect width="17.25" height="17.25" fill="white" transform="translate(14.375 14.2312)"/>
</clipPath>
</defs>
</svg>
