<svg width="57" height="57" viewBox="0 0 57 57" fill="none" xmlns="http://www.w3.org/2000/svg">
<path d="M0.0385742 10.6954C0.0385742 4.80982 4.80982 0.0385742 10.6954 0.0385742H45.3817C51.2673 0.0385742 56.0386 4.80981 56.0386 10.6954V45.3816C56.0386 51.2673 51.2673 56.0385 45.3817 56.0385H10.6954C4.80981 56.0385 0.0385742 51.2673 0.0385742 45.3816V10.6954Z" fill="url(#paint0_linear_8_1123)"/>
<g clip-path="url(#clip0_8_1123)">
<path d="M25.0941 17.3723C26.3615 17.3723 27.391 18.4018 27.391 19.6692V36.0754C27.391 37.3428 26.3615 38.3723 25.0941 38.3723C23.9088 38.3723 22.9326 37.4741 22.8096 36.3174C22.5963 36.3748 22.3707 36.4036 22.141 36.4036C20.6932 36.4036 19.516 35.2264 19.516 33.7786C19.516 33.475 19.5693 33.1797 19.6637 32.909C18.425 32.4415 17.5473 31.2438 17.5473 29.8411C17.5473 28.5327 18.3143 27.4006 19.4258 26.8756C19.069 26.4286 18.8598 25.8625 18.8598 25.2473C18.8598 23.9881 19.7457 22.9381 20.927 22.6797C20.8613 22.4541 20.8285 22.2122 20.8285 21.9661C20.8285 20.7397 21.6734 19.7061 22.8096 19.419C22.9326 18.2706 23.9088 17.3723 25.0941 17.3723ZM31.0004 17.3723C32.1857 17.3723 33.1578 18.2706 33.285 19.419C34.4252 19.7061 35.266 20.7356 35.266 21.9661C35.266 22.2122 35.2332 22.4541 35.1676 22.6797C36.3488 22.934 37.2348 23.9881 37.2348 25.2473C37.2348 25.8625 37.0256 26.4286 36.6688 26.8756C37.7803 27.4006 38.5473 28.5327 38.5473 29.8411C38.5473 31.2438 37.6695 32.4415 36.4309 32.909C36.5252 33.1797 36.5785 33.475 36.5785 33.7786C36.5785 35.2264 35.4014 36.4036 33.9535 36.4036C33.7238 36.4036 33.4982 36.3748 33.285 36.3174C33.1619 37.4741 32.1857 38.3723 31.0004 38.3723C29.733 38.3723 28.7035 37.3428 28.7035 36.0754V19.6692C28.7035 18.4018 29.733 17.3723 31.0004 17.3723Z" fill="white"/>
</g>
<defs>
<linearGradient id="paint0_linear_8_1123" x1="0.0385742" y1="28.0385" x2="56.0386" y2="28.0385" gradientUnits="userSpaceOnUse">
<stop stop-color="#FCA311"/>
<stop offset="1" stop-color="#FACC15"/>
</linearGradient>
<clipPath id="clip0_8_1123">
<rect width="21" height="21" fill="white" transform="translate(17.5473 17.3723)"/>
</clipPath>
</defs>
</svg>
