<svg width="46" height="46" viewBox="0 0 46 46" fill="none" xmlns="http://www.w3.org/2000/svg">
<path d="M0 9.2C0 4.11898 4.11898 0 9.2 0H36.8C41.881 0 46 4.11898 46 9.2V36.8C46 41.881 41.881 46 36.8 46H9.2C4.11898 46 0 41.881 0 36.8V9.2Z" fill="url(#paint0_linear_10_3031)"/>
<g clip-path="url(#clip0_10_3031)">
<path d="M23.5391 22.3171V14.7905C23.5391 14.4873 23.7749 14.2312 24.0781 14.2312C28.2458 14.2312 31.625 17.6104 31.625 21.7781C31.625 22.0813 31.3689 22.3171 31.0657 22.3171H23.5391ZM14.375 23.3953C14.375 19.3085 17.4106 15.9259 21.3491 15.3868C21.6591 15.343 21.9219 15.5923 21.9219 15.9057V23.9343L27.1946 29.207C27.4203 29.4328 27.4035 29.8034 27.144 29.9853C25.8233 30.9287 24.2062 31.4812 22.4609 31.4812C17.9968 31.4812 14.375 27.8627 14.375 23.3953ZM32.1102 23.9343C32.4235 23.9343 32.6694 24.1971 32.629 24.5071C32.3696 26.3904 31.4633 28.0649 30.1392 29.3014C29.9371 29.49 29.6204 29.4766 29.4249 29.2778L24.0781 23.9343H32.1102Z" fill="white"/>
</g>
<defs>
<linearGradient id="paint0_linear_10_3031" x1="0" y1="23" x2="46" y2="23" gradientUnits="userSpaceOnUse">
<stop stop-color="#FCA311"/>
<stop offset="1" stop-color="#FACC15"/>
</linearGradient>
<clipPath id="clip0_10_3031">
<rect width="19.4062" height="17.25" fill="white" transform="translate(13.2969 14.2312)"/>
</clipPath>
</defs>
</svg>
