<svg width="56" height="56" viewBox="0 0 56 56" fill="none" xmlns="http://www.w3.org/2000/svg">
<path d="M0 11.2C0 5.01441 5.01441 0 11.2 0H44.8C50.9856 0 56 5.01441 56 11.2V44.8C56 50.9856 50.9856 56 44.8 56H11.2C5.01441 56 0 50.9856 0 44.8V11.2Z" fill="url(#paint0_linear_10_2919)"/>
<g clip-path="url(#clip0_10_2919)">
<path d="M17.5 27.825C17.5 25.0402 18.6062 22.3695 20.5754 20.4003C22.5445 18.4312 25.2152 17.325 28 17.325C30.7848 17.325 33.4555 18.4312 35.4246 20.4003C37.3938 22.3695 38.5 25.0402 38.5 27.825C38.5 30.6097 37.3938 33.2804 35.4246 35.2496C33.4555 37.2187 30.7848 38.325 28 38.325C25.2152 38.325 22.5445 37.2187 20.5754 35.2496C18.6062 33.2804 17.5 30.6097 17.5 27.825ZM29.3125 21.2625C29.3125 20.9144 29.1742 20.5805 28.9281 20.3344C28.6819 20.0882 28.3481 19.95 28 19.95C27.6519 19.95 27.3181 20.0882 27.0719 20.3344C26.8258 20.5805 26.6875 20.9144 26.6875 21.2625C26.6875 21.6105 26.8258 21.9444 27.0719 22.1905C27.3181 22.4367 27.6519 22.575 28 22.575C28.3481 22.575 28.6819 22.4367 28.9281 22.1905C29.1742 21.9444 29.3125 21.6105 29.3125 21.2625ZM28 34.3875C29.4479 34.3875 30.625 33.2103 30.625 31.7625C30.625 31.0488 30.342 30.4048 29.8826 29.9332L32.5117 23.9572C32.7291 23.4609 32.5035 22.8785 32.0072 22.6611C31.5109 22.4437 30.9285 22.6693 30.7111 23.1656L28.0779 29.1375C28.0533 29.1375 28.0246 29.1375 28 29.1375C26.5521 29.1375 25.375 30.3146 25.375 31.7625C25.375 33.2103 26.5521 34.3875 28 34.3875ZM24.7188 23.2312C24.7188 22.8831 24.5805 22.5493 24.3343 22.3031C24.0882 22.057 23.7543 21.9187 23.4062 21.9187C23.0582 21.9187 22.7243 22.057 22.4782 22.3031C22.232 22.5493 22.0938 22.8831 22.0938 23.2312C22.0938 23.5793 22.232 23.9131 22.4782 24.1593C22.7243 24.4054 23.0582 24.5437 23.4062 24.5437C23.7543 24.5437 24.0882 24.4054 24.3343 24.1593C24.5805 23.9131 24.7188 23.5793 24.7188 23.2312ZM21.4375 29.1375C21.7856 29.1375 22.1194 28.9992 22.3656 28.753C22.6117 28.5069 22.75 28.173 22.75 27.825C22.75 27.4769 22.6117 27.143 22.3656 26.8969C22.1194 26.6507 21.7856 26.5125 21.4375 26.5125C21.0894 26.5125 20.7556 26.6507 20.5094 26.8969C20.2633 27.143 20.125 27.4769 20.125 27.825C20.125 28.173 20.2633 28.5069 20.5094 28.753C20.7556 28.9992 21.0894 29.1375 21.4375 29.1375ZM35.875 27.825C35.875 27.4769 35.7367 27.143 35.4906 26.8969C35.2444 26.6507 34.9106 26.5125 34.5625 26.5125C34.2144 26.5125 33.8806 26.6507 33.6344 26.8969C33.3883 27.143 33.25 27.4769 33.25 27.825C33.25 28.173 33.3883 28.5069 33.6344 28.753C33.8806 28.9992 34.2144 29.1375 34.5625 29.1375C34.9106 29.1375 35.2444 28.9992 35.4906 28.753C35.7367 28.5069 35.875 28.173 35.875 27.825Z" fill="white"/>
</g>
<defs>
<linearGradient id="paint0_linear_10_2919" x1="0" y1="28" x2="56" y2="28" gradientUnits="userSpaceOnUse">
<stop stop-color="#14213D"/>
<stop offset="1" stop-color="#1E3A8A"/>
</linearGradient>
<clipPath id="clip0_10_2919">
<rect width="21" height="21" fill="white" transform="translate(17.5 17.325)"/>
</clipPath>
</defs>
</svg>
