<svg width="40" height="40" viewBox="0 0 40 40" fill="none" xmlns="http://www.w3.org/2000/svg">
<path d="M0 20C0 8.95431 8.95431 0 20 0C31.0457 0 40 8.95431 40 20C40 31.0457 31.0457 40 20 40C8.95431 40 0 31.0457 0 20Z" fill="url(#paint0_linear_1_1194)"/>
<g clip-path="url(#clip0_1_1194)">
<path d="M16.8938 24.0283L15.9281 23.0627C15.6625 22.7971 15.5687 22.4127 15.6875 22.0565C15.7812 21.7783 15.9062 21.4158 16.0563 21.0002H12.75C12.4812 21.0002 12.2312 20.8565 12.0969 20.6221C11.9625 20.3877 11.9656 20.1002 12.1031 19.869L13.7437 17.1033C14.15 16.419 14.8844 16.0002 15.6781 16.0002H18.25C18.325 15.8752 18.4 15.7596 18.475 15.6471C21.0344 11.8721 24.8469 11.7471 27.1219 12.1658C27.4844 12.2315 27.7656 12.5158 27.8344 12.8783C28.2531 15.1565 28.125 18.9658 24.3531 21.5252C24.2437 21.6002 24.125 21.6752 24 21.7502V24.3221C24 25.1158 23.5813 25.8533 22.8969 26.2565L20.1313 27.8971C19.9 28.0346 19.6125 28.0377 19.3781 27.9033C19.1438 27.769 19 27.5221 19 27.2502V23.9002C18.5594 24.0533 18.175 24.1783 17.8844 24.2721C17.5344 24.3846 17.1531 24.2877 16.8906 24.0283H16.8938ZM24 17.2502C24.3315 17.2502 24.6495 17.1185 24.8839 16.8841C25.1183 16.6497 25.25 16.3317 25.25 16.0002C25.25 15.6687 25.1183 15.3508 24.8839 15.1163C24.6495 14.8819 24.3315 14.7502 24 14.7502C23.6685 14.7502 23.3505 14.8819 23.1161 15.1163C22.8817 15.3508 22.75 15.6687 22.75 16.0002C22.75 16.3317 22.8817 16.6497 23.1161 16.8841C23.3505 17.1185 23.6685 17.2502 24 17.2502Z" fill="white"/>
</g>
<defs>
<linearGradient id="paint0_linear_1_1194" x1="0" y1="20" x2="40" y2="20" gradientUnits="userSpaceOnUse">
<stop stop-color="#FCA311"/>
<stop offset="1" stop-color="#FACC15"/>
</linearGradient>
<clipPath id="clip0_1_1194">
<path d="M12 12H28V28H12V12Z" fill="white"/>
</clipPath>
</defs>
</svg>
