<svg width="48" height="48" viewBox="0 0 48 48" fill="none" xmlns="http://www.w3.org/2000/svg">
<path d="M40 0C44.4183 5.15405e-07 48 3.58172 48 8V40C48 44.4183 44.4183 48 40 48H8C3.58172 48 1.28855e-07 44.4183 0 40V8C5.15422e-07 3.58172 3.58172 1.28851e-07 8 0H40Z" fill="url(#paint0_linear_304_65)"/>
<path d="M40 0C44.4183 5.15405e-07 48 3.58172 48 8V40C48 44.4183 44.4183 48 40 48H8C3.58172 48 1.28855e-07 44.4183 0 40V8C5.15422e-07 3.58172 3.58172 1.28851e-07 8 0H40Z" stroke="#E5E7EB"/>
<g clip-path="url(#clip0_304_65)">
<path d="M30.25 21.625C30.25 23.418 29.668 25.0742 28.6875 26.418L33.6328 31.3672C34.1211 31.8555 34.1211 32.6484 33.6328 33.1367C33.1445 33.625 32.3516 33.625 31.8633 33.1367L26.918 28.1875C25.5742 29.1719 23.918 29.75 22.125 29.75C17.6367 29.75 14 26.1133 14 21.625C14 17.1367 17.6367 13.5 22.125 13.5C26.6133 13.5 30.25 17.1367 30.25 21.625ZM22.125 27.25C22.8637 27.25 23.5951 27.1045 24.2776 26.8218C24.9601 26.5391 25.5801 26.1248 26.1025 25.6025C26.6248 25.0801 27.0391 24.4601 27.3218 23.7776C27.6045 23.0951 27.75 22.3637 27.75 21.625C27.75 20.8863 27.6045 20.1549 27.3218 19.4724C27.0391 18.7899 26.6248 18.1699 26.1025 17.6475C25.5801 17.1252 24.9601 16.7109 24.2776 16.4282C23.5951 16.1455 22.8637 16 22.125 16C21.3863 16 20.6549 16.1455 19.9724 16.4282C19.2899 16.7109 18.6699 17.1252 18.1475 17.6475C17.6252 18.1699 17.2109 18.7899 16.9282 19.4724C16.6455 20.1549 16.5 20.8863 16.5 21.625C16.5 22.3637 16.6455 23.0951 16.9282 23.7776C17.2109 24.4601 17.6252 25.0801 18.1475 25.6025C18.6699 26.1248 19.2899 26.5391 19.9724 26.8218C20.6549 27.1045 21.3863 27.25 22.125 27.25Z" fill="white"/>
</g>
<defs>
<linearGradient id="paint0_linear_304_65" x1="0" y1="24" x2="48" y2="24" gradientUnits="userSpaceOnUse">
<stop stop-color="#14213D"/>
<stop offset="1" stop-color="#1E3A8A"/>
</linearGradient>
<clipPath id="clip0_304_65">
<path d="M14 13.5H34V33.5H14V13.5Z" fill="white"/>
</clipPath>
</defs>
</svg>
