<svg width="48" height="48" viewBox="0 0 48 48" fill="none" xmlns="http://www.w3.org/2000/svg">
<path d="M36 0C42.6274 0 48 5.37258 48 12V36C48 42.6274 42.6274 48 36 48H12C5.37258 48 0 42.6274 0 36V12C0 5.37258 5.37258 0 12 0H36Z" fill="url(#paint0_linear_7_1068)"/>
<path d="M36 0C42.6274 0 48 5.37258 48 12V36C48 42.6274 42.6274 48 36 48H12C5.37258 48 0 42.6274 0 36V12C0 5.37258 5.37258 0 12 0H36Z" stroke="#E5E7EB"/>
<g clip-path="url(#clip0_7_1068)">
<path d="M32.5112 14.4469C32.8663 14.693 33.0526 15.1184 32.9858 15.5438L30.7358 30.1688C30.6831 30.5098 30.4757 30.8086 30.1733 30.9774C29.871 31.1461 29.5089 31.1672 29.1889 31.0336L24.9843 29.2863L22.576 31.8914C22.2632 32.2324 21.771 32.3449 21.3386 32.1762C20.9061 32.0074 20.6249 31.5891 20.6249 31.125V28.1859C20.6249 28.0453 20.6776 27.9117 20.7725 27.8098L26.6647 21.3797C26.8686 21.1582 26.8616 20.8172 26.6507 20.6063C26.4397 20.3953 26.0987 20.3813 25.8772 20.5817L18.7264 26.9344L15.6221 25.3805C15.2495 25.1942 15.0104 24.8215 14.9999 24.4067C14.9893 23.9918 15.2073 23.6051 15.5659 23.3977L31.3159 14.3977C31.6921 14.1832 32.1561 14.2043 32.5112 14.4469Z" fill="white"/>
</g>
<defs>
<linearGradient id="paint0_linear_7_1068" x1="0" y1="24" x2="48" y2="24" gradientUnits="userSpaceOnUse">
<stop stop-color="#14213D"/>
<stop offset="1" stop-color="#1E3A8A"/>
</linearGradient>
<clipPath id="clip0_7_1068">
<path d="M15 14.25H33V32.25H15V14.25Z" fill="white"/>
</clipPath>
</defs>
</svg>
