<svg width="48" height="48" viewBox="0 0 48 48" fill="none" xmlns="http://www.w3.org/2000/svg">
<path d="M36 0C42.6274 0 48 5.37258 48 12V36C48 42.6274 42.6274 48 36 48H12C5.37258 48 0 42.6274 0 36V12C0 5.37258 5.37258 0 12 0H36Z" fill="url(#paint0_linear_8_104)"/>
<path d="M36 0C42.6274 0 48 5.37258 48 12V36C48 42.6274 42.6274 48 36 48H12C5.37258 48 0 42.6274 0 36V12C0 5.37258 5.37258 0 12 0H36Z" stroke="#E5E7EB"/>
<g clip-path="url(#clip0_8_104)">
<path d="M20.3472 15.593C20.6952 15.9059 20.7234 16.4367 20.4105 16.7848L17.8792 19.5973C17.7245 19.7695 17.5066 19.8715 17.2745 19.875C17.0425 19.8785 16.821 19.7906 16.6558 19.6289L15.246 18.2227C14.9191 17.8922 14.9191 17.3578 15.246 17.0274C15.573 16.6969 16.1109 16.6969 16.4378 17.0274L17.2148 17.8043L19.1519 15.6527C19.4648 15.3047 19.9956 15.2766 20.3437 15.5895L20.3472 15.593ZM20.3472 21.218C20.6952 21.5309 20.7234 22.0617 20.4105 22.4098L17.8792 25.2223C17.7245 25.3945 17.5066 25.4965 17.2745 25.5C17.0425 25.5035 16.821 25.4156 16.6558 25.2539L15.246 23.8477C14.9156 23.5172 14.9156 22.9828 15.246 22.6559C15.5765 22.3289 16.1109 22.3254 16.4378 22.6559L17.2148 23.4328L19.1519 21.2813C19.4648 20.9332 19.9956 20.9051 20.3437 21.218H20.3472ZM22.8749 17.625C22.8749 17.0027 23.3777 16.5 23.9999 16.5H31.8749C32.4972 16.5 32.9999 17.0027 32.9999 17.625C32.9999 18.2473 32.4972 18.75 31.8749 18.75H23.9999C23.3777 18.75 22.8749 18.2473 22.8749 17.625ZM22.8749 23.25C22.8749 22.6277 23.3777 22.125 23.9999 22.125H31.8749C32.4972 22.125 32.9999 22.6277 32.9999 23.25C32.9999 23.8723 32.4972 24.375 31.8749 24.375H23.9999C23.3777 24.375 22.8749 23.8723 22.8749 23.25ZM20.6249 28.875C20.6249 28.2527 21.1277 27.75 21.7499 27.75H31.8749C32.4972 27.75 32.9999 28.2527 32.9999 28.875C32.9999 29.4973 32.4972 30 31.8749 30H21.7499C21.1277 30 20.6249 29.4973 20.6249 28.875ZM16.6874 27.1875C17.135 27.1875 17.5642 27.3653 17.8807 27.6818C18.1971 27.9982 18.3749 28.4275 18.3749 28.875C18.3749 29.3226 18.1971 29.7518 17.8807 30.0683C17.5642 30.3847 17.135 30.5625 16.6874 30.5625C16.2399 30.5625 15.8107 30.3847 15.4942 30.0683C15.1777 29.7518 14.9999 29.3226 14.9999 28.875C14.9999 28.4275 15.1777 27.9982 15.4942 27.6818C15.8107 27.3653 16.2399 27.1875 16.6874 27.1875Z" fill="white"/>
</g>
<defs>
<linearGradient id="paint0_linear_8_104" x1="0" y1="24" x2="48" y2="24" gradientUnits="userSpaceOnUse">
<stop stop-color="#14213D"/>
<stop offset="1" stop-color="#1E3A8A"/>
</linearGradient>
<clipPath id="clip0_8_104">
<path d="M15 14.25H33V32.25H15V14.25Z" fill="white"/>
</clipPath>
</defs>
</svg>
