<svg width="64" height="64" viewBox="0 0 64 64" fill="none" xmlns="http://www.w3.org/2000/svg">
<path d="M0 16C0 7.16344 7.16344 0 16 0H48C56.8366 0 64 7.16344 64 16V48C64 56.8366 56.8366 64 48 64H16C7.16344 64 0 56.8366 0 48V16Z" fill="url(#paint0_linear_336_3168)"/>
<g clip-path="url(#clip0_336_3168)">
<path d="M44 22.75C44 23.5938 43.3297 24.3719 42.2 25C40.8359 25.7547 38.8016 26.2891 36.4672 26.4484C36.2937 26.3641 36.1203 26.2844 35.9375 26.2141C34.0906 25.4406 31.6344 25 29 25C28.6109 25 28.2312 25.0094 27.8516 25.0281L27.8 25C26.6703 24.3719 26 23.5938 26 22.75C26 20.6781 30.0312 19 35 19C39.9688 19 44 20.6781 44 22.75ZM27.5328 26.5516C28.0109 26.5188 28.5031 26.5 29 26.5C31.9156 26.5 34.5031 27.0766 36.1484 27.9719C37.3109 28.6047 38 29.3922 38 30.25C38 30.4375 37.9672 30.6203 37.9016 30.7984C37.6859 31.4172 37.1047 31.9844 36.2609 32.4625C36.2563 32.4672 36.2469 32.4672 36.2422 32.4719C36.2281 32.4812 36.2141 32.4859 36.2 32.4953C34.5594 33.4047 31.9438 33.9953 29 33.9953C26.2063 33.9953 23.7078 33.4656 22.0531 32.6312C21.9641 32.5891 21.8797 32.5422 21.7953 32.4953C20.6703 31.8719 20 31.0938 20 30.25C20 28.6187 22.5031 27.2266 26 26.7156C26.4922 26.6453 27.0031 26.5891 27.5328 26.5516ZM39.5 30.25C39.5 29.2234 39.0031 28.3797 38.3703 27.7469C39.6969 27.5406 40.9109 27.2125 41.9422 26.7859C42.7063 26.4672 43.4188 26.0734 44 25.5906V27.25C44 28.1547 43.2266 28.9891 41.9469 29.6359C41.2625 29.9828 40.4281 30.2781 39.4906 30.5031C39.4953 30.4187 39.5 30.3391 39.5 30.2547V30.25ZM38 34.75C38 35.5938 37.3297 36.3719 36.2 37C36.1156 37.0469 36.0312 37.0891 35.9422 37.1359C34.2922 37.9703 31.7937 38.5 29 38.5C26.0563 38.5 23.4406 37.9094 21.8 37C20.6703 36.3719 20 35.5938 20 34.75V33.0906C20.5859 33.5734 21.2938 33.9672 22.0578 34.2859C23.9094 35.0594 26.3656 35.5 29 35.5C31.6344 35.5 34.0906 35.0594 35.9422 34.2859C36.3078 34.1359 36.6594 33.9625 36.9922 33.775C37.2781 33.6156 37.5453 33.4375 37.7984 33.25C37.8688 33.1984 37.9344 33.1422 38 33.0906V33.25V33.5172V34.75ZM39.5 34.75V33.25V32.0359C40.3906 31.8391 41.2109 31.5906 41.9422 31.2859C42.7063 30.9672 43.4188 30.5734 44 30.0906V31.75C44 32.2422 43.7656 32.7344 43.3016 33.1984C42.5375 33.9625 41.1922 34.5906 39.4906 34.9984C39.4953 34.9187 39.5 34.8344 39.5 34.75ZM29 40C31.6344 40 34.0906 39.5594 35.9422 38.7859C36.7063 38.4672 37.4188 38.0734 38 37.5906V39.25C38 41.3219 33.9688 43 29 43C24.0312 43 20 41.3219 20 39.25V37.5906C20.5859 38.0734 21.2938 38.4672 22.0578 38.7859C23.9094 39.5594 26.3656 40 29 40Z" fill="white"/>
</g>
<defs>
<linearGradient id="paint0_linear_336_3168" x1="0" y1="32" x2="64" y2="32" gradientUnits="userSpaceOnUse">
<stop stop-color="#14213D"/>
<stop offset="1" stop-color="#2563EB"/>
</linearGradient>
<clipPath id="clip0_336_3168">
<rect width="24" height="24" fill="white" transform="translate(20 19)"/>
</clipPath>
</defs>
</svg>
