<svg width="64" height="64" viewBox="0 0 64 64" fill="none" xmlns="http://www.w3.org/2000/svg">
<path d="M0 16C0 7.16344 7.16344 0 16 0H48C56.8366 0 64 7.16344 64 16V48C64 56.8366 56.8366 64 48 64H16C7.16344 64 0 56.8366 0 48V16Z" fill="url(#paint0_linear_336_3138)"/>
<g clip-path="url(#clip0_336_3138)">
<path d="M28.625 19C30.0734 19 31.25 20.1766 31.25 21.625V40.375C31.25 41.8234 30.0734 43 28.625 43C27.2703 43 26.1547 41.9734 26.0141 40.6516C25.7703 40.7172 25.5125 40.75 25.25 40.75C23.5953 40.75 22.25 39.4047 22.25 37.75C22.25 37.4031 22.3109 37.0656 22.4187 36.7562C21.0031 36.2219 20 34.8531 20 33.25C20 31.7547 20.8766 30.4609 22.1469 29.8609C21.7391 29.35 21.5 28.7031 21.5 28C21.5 26.5609 22.5125 25.3609 23.8625 25.0656C23.7875 24.8078 23.75 24.5312 23.75 24.25C23.75 22.8484 24.7156 21.6672 26.0141 21.3391C26.1547 20.0266 27.2703 19 28.625 19ZM35.375 19C36.7297 19 37.8406 20.0266 37.9859 21.3391C39.2891 21.6672 40.25 22.8438 40.25 24.25C40.25 24.5312 40.2125 24.8078 40.1375 25.0656C41.4875 25.3562 42.5 26.5609 42.5 28C42.5 28.7031 42.2609 29.35 41.8531 29.8609C43.1234 30.4609 44 31.7547 44 33.25C44 34.8531 42.9969 36.2219 41.5812 36.7562C41.6891 37.0656 41.75 37.4031 41.75 37.75C41.75 39.4047 40.4047 40.75 38.75 40.75C38.4875 40.75 38.2297 40.7172 37.9859 40.6516C37.8453 41.9734 36.7297 43 35.375 43C33.9266 43 32.75 41.8234 32.75 40.375V21.625C32.75 20.1766 33.9266 19 35.375 19Z" fill="white"/>
</g>
<defs>
<linearGradient id="paint0_linear_336_3138" x1="0" y1="32" x2="64" y2="32" gradientUnits="userSpaceOnUse">
<stop stop-color="#FCA311"/>
<stop offset="1" stop-color="#FACC15"/>
</linearGradient>
<clipPath id="clip0_336_3138">
<rect width="24" height="24" fill="white" transform="translate(20 19)"/>
</clipPath>
</defs>
</svg>
