<svg width="49" height="48" viewBox="0 0 49 48" fill="none" xmlns="http://www.w3.org/2000/svg">
<path d="M24.5 0C37.7548 0 48.5 10.7452 48.5 24C48.5 37.2548 37.7548 48 24.5 48C11.2452 48 0.5 37.2548 0.5 24C0.5 10.7452 11.2452 0 24.5 0Z" fill="#14213D" fill-opacity="0.2"/>
<path d="M24.5 0C37.7548 0 48.5 10.7452 48.5 24C48.5 37.2548 37.7548 48 24.5 48C11.2452 48 0.5 37.2548 0.5 24C0.5 10.7452 11.2452 0 24.5 0Z" stroke="#E5E7EB"/>
<mask id="mask0_63_3395" style="mask-type:luminance" maskUnits="userSpaceOnUse" x="13" y="13" width="23" height="21">
<path d="M14.5 33H34.5" stroke="white" stroke-width="2" stroke-linecap="round" stroke-linejoin="round"/>
<path d="M19.5 25H17.5C16.9477 25 16.5 25.4477 16.5 26V32C16.5 32.5523 16.9477 33 17.5 33H19.5C20.0523 33 20.5 32.5523 20.5 32V26C20.5 25.4477 20.0523 25 19.5 25Z" fill="white" stroke="white" stroke-width="2" stroke-linejoin="round"/>
<path d="M18.5 29H19" stroke="black" stroke-width="2" stroke-linecap="square" stroke-linejoin="round"/>
<path d="M31.5 14H21.5C20.9477 14 20.5 14.4477 20.5 15V32C20.5 32.5523 20.9477 33 21.5 33H31.5C32.0523 33 32.5 32.5523 32.5 32V15C32.5 14.4477 32.0523 14 31.5 14Z" fill="white" stroke="white" stroke-width="2" stroke-linejoin="round"/>
<path d="M23.5 17H25.5V19H23.5V17ZM27.5 17H29.5V19H27.5V17ZM23.5 20.5H25.5V22.5H23.5V20.5ZM27.5 20.5H29.5V22.5H27.5V20.5ZM27.5 24H29.5V26H27.5V24ZM27.5 27.5H29.5V29.5H27.5V27.5Z" fill="black"/>
</mask>
<g mask="url(#mask0_63_3395)">
<path d="M12.5 12H36.5V36H12.5V12Z" fill="#14213D"/>
</g>
</svg>
