<svg width="49" height="48" viewBox="0 0 49 48" fill="none" xmlns="http://www.w3.org/2000/svg">
<path d="M0.5 24C0.5 10.7452 11.2452 0 24.5 0V0C37.7548 0 48.5 10.7452 48.5 24V24C48.5 37.2548 37.7548 48 24.5 48V48C11.2452 48 0.5 37.2548 0.5 24V24Z" fill="#FCA311" fill-opacity="0.2"/>
<g clip-path="url(#clip0_63_3398)">
<path d="M22.832 14.7656C23.5117 14.8789 23.9727 15.5234 23.8594 16.2031L23.4766 18.5H27.1914L27.6406 15.793C27.7539 15.1133 28.3984 14.6523 29.0781 14.7656C29.7578 14.8789 30.2188 15.5234 30.1055 16.2031L29.7266 18.5H32C32.6914 18.5 33.25 19.0586 33.25 19.75C33.25 20.4414 32.6914 21 32 21H29.3086L28.4766 26H30.75C31.4414 26 32 26.5586 32 27.25C32 27.9414 31.4414 28.5 30.75 28.5H28.0586L27.6094 31.207C27.4961 31.8867 26.8516 32.3477 26.1719 32.2344C25.4922 32.1211 25.0312 31.4766 25.1445 30.7969L25.5273 28.5039H21.8086L21.3594 31.2109C21.2461 31.8906 20.6016 32.3516 19.9219 32.2383C19.2422 32.125 18.7812 31.4805 18.8945 30.8008L19.2734 28.5H17C16.3086 28.5 15.75 27.9414 15.75 27.25C15.75 26.5586 16.3086 26 17 26H19.6914L20.5234 21H18.25C17.5586 21 17 20.4414 17 19.75C17 19.0586 17.5586 18.5 18.25 18.5H20.9414L21.3906 15.793C21.5039 15.1133 22.1484 14.6523 22.8281 14.7656H22.832ZM23.0586 21L22.2266 26H25.9414L26.7734 21H23.0586Z" fill="#FCA311"/>
</g>
<defs>
<clipPath id="clip0_63_3398">
<path d="M15.75 13.5H33.25V33.5H15.75V13.5Z" fill="white"/>
</clipPath>
</defs>
</svg>
