<svg width="23" height="23" viewBox="0 0 23 23" fill="none" xmlns="http://www.w3.org/2000/svg">
<g clip-path="url(#clip0_72_95)">
<path d="M16.8778 0.118408H5.16667C2.3132 0.118408 0 2.4316 0 5.28508V16.9962C0 19.8497 2.3132 22.1629 5.16667 22.1629H16.8778C19.7312 22.1629 22.0444 19.8497 22.0444 16.9962V5.28508C22.0444 2.4316 19.7312 0.118408 16.8778 0.118408Z" fill="url(#paint0_radial_72_95)"/>
<path d="M16.8778 0.118408H5.16667C2.3132 0.118408 0 2.4316 0 5.28508V16.9962C0 19.8497 2.3132 22.1629 5.16667 22.1629H16.8778C19.7312 22.1629 22.0444 19.8497 22.0444 16.9962V5.28508C22.0444 2.4316 19.7312 0.118408 16.8778 0.118408Z" fill="url(#paint1_radial_72_95)"/>
<path d="M11.023 2.52954C8.68441 2.52954 8.39086 2.53979 7.4724 2.58155C6.55566 2.62357 5.92989 2.76867 5.3824 2.98162C4.81596 3.20155 4.33554 3.49579 3.85694 3.97457C3.3779 4.45326 3.08366 4.93368 2.86304 5.49986C2.64949 6.04752 2.50422 6.67355 2.46297 7.58986C2.4219 8.50841 2.41113 8.80205 2.41113 11.1407C2.41113 13.4794 2.42147 13.772 2.46314 14.6905C2.50534 15.6072 2.65044 16.233 2.86322 16.7805C3.08332 17.3469 3.37756 17.8274 3.85634 18.306C4.33486 18.785 4.81527 19.0799 5.38128 19.2999C5.9292 19.5128 6.55506 19.6579 7.47162 19.6999C8.39017 19.7417 8.68347 19.7519 11.022 19.7519C13.3608 19.7519 13.6535 19.7417 14.5719 19.6999C15.4887 19.6579 16.1151 19.5128 16.663 19.2999C17.2292 19.0799 17.7089 18.785 18.1874 18.306C18.6664 17.8274 18.9606 17.3469 19.1813 16.7808C19.3929 16.233 19.5383 15.6071 19.5813 14.6907C19.6226 13.7722 19.6334 13.4794 19.6334 11.1407C19.6334 8.80205 19.6226 8.50858 19.5813 7.59003C19.5383 6.67329 19.3929 6.04761 19.1813 5.50012C18.9606 4.93368 18.6664 4.45326 18.1874 3.97457C17.7084 3.49562 17.2294 3.20138 16.6625 2.98171C16.1136 2.76867 15.4874 2.62349 14.5707 2.58155C13.6522 2.53979 13.3597 2.52954 11.0203 2.52954H11.023ZM10.2505 4.08135C10.4798 4.081 10.7357 4.08135 11.023 4.08135C13.3223 4.08135 13.5947 4.08962 14.5027 4.13086C15.3423 4.16927 15.798 4.30954 16.1015 4.42743C16.5034 4.58346 16.7899 4.77007 17.0911 5.07154C17.3925 5.37293 17.579 5.65994 17.7355 6.06182C17.8534 6.36493 17.9938 6.82063 18.032 7.66021C18.0733 8.568 18.0822 8.84062 18.0822 11.1388C18.0822 13.4369 18.0733 13.7096 18.032 14.6173C17.9936 15.4569 17.8534 15.9126 17.7355 16.2158C17.5794 16.6177 17.3925 16.9038 17.0911 17.205C16.7897 17.5064 16.5036 17.6929 16.1015 17.8491C15.7983 17.9675 15.3423 18.1074 14.5027 18.1458C13.5949 18.187 13.3223 18.196 11.023 18.196C8.72368 18.196 8.45114 18.187 7.54344 18.1458C6.70386 18.107 6.24816 17.9668 5.94436 17.8489C5.54256 17.6928 5.25547 17.5062 4.95408 17.2049C4.65269 16.9035 4.46617 16.6171 4.30971 16.2151C4.19182 15.9119 4.05138 15.4562 4.01314 14.6166C3.9719 13.7088 3.96363 13.4362 3.96363 11.1366C3.96363 8.83701 3.9719 8.56584 4.01314 7.65806C4.05155 6.81848 4.19182 6.36278 4.30971 6.05924C4.46583 5.65735 4.65269 5.37035 4.95417 5.06896C5.25564 4.76757 5.54256 4.58097 5.94444 4.42459C6.24799 4.30619 6.70386 4.16625 7.54344 4.12768C8.33782 4.09177 8.64566 4.081 10.2505 4.0792V4.08135ZM15.6196 5.51114C15.0491 5.51114 14.5863 5.97356 14.5863 6.54413C14.5863 7.11461 15.0491 7.57746 15.6196 7.57746C16.1901 7.57746 16.653 7.11461 16.653 6.54413C16.653 5.97364 16.1901 5.51114 15.6196 5.51114ZM11.023 6.7185C8.58091 6.7185 6.60087 8.69854 6.60087 11.1407C6.60087 13.5829 8.58091 15.562 11.023 15.562C13.4652 15.562 15.4446 13.5829 15.4446 11.1407C15.4446 8.69863 13.4652 6.7185 11.023 6.7185ZM11.023 8.27031C12.6082 8.27031 13.8934 9.55535 13.8934 11.1407C13.8934 12.726 12.6082 14.0112 11.023 14.0112C9.4378 14.0112 8.15268 12.726 8.15268 11.1407C8.15268 9.55535 9.43771 8.27031 11.023 8.27031Z" fill="white"/>
</g>
<defs>
<radialGradient id="paint0_radial_72_95" cx="0" cy="0" r="1" gradientUnits="userSpaceOnUse" gradientTransform="translate(5.85556 23.8607) rotate(-90) scale(21.8477 20.3201)">
<stop stop-color="#FFDD55"/>
<stop offset="0.1" stop-color="#FFDD55"/>
<stop offset="0.5" stop-color="#FF543E"/>
<stop offset="1" stop-color="#C837AB"/>
</radialGradient>
<radialGradient id="paint1_radial_72_95" cx="0" cy="0" r="1" gradientUnits="userSpaceOnUse" gradientTransform="translate(-3.69253 1.70638) rotate(78.681) scale(9.76603 40.2559)">
<stop stop-color="#3771C8"/>
<stop offset="0.128" stop-color="#3771C8"/>
<stop offset="1" stop-color="#6600FF" stop-opacity="0"/>
</radialGradient>
<clipPath id="clip0_72_95">
<rect width="22.0444" height="22.0444" fill="white" transform="translate(0 0.118408)"/>
</clipPath>
</defs>
</svg>
