<svg width="48" height="48" viewBox="0 0 48 48" fill="none" xmlns="http://www.w3.org/2000/svg">
<path d="M0 24C0 10.7452 10.7452 0 24 0C37.2548 0 48 10.7452 48 24C48 37.2548 37.2548 48 24 48C10.7452 48 0 37.2548 0 24Z" fill="url(#paint0_linear_1_536)"/>
<g clip-path="url(#clip0_1_536)">
<path d="M23.082 13.7031C23.6641 13.4336 24.3359 13.4336 24.918 13.7031L33.457 17.6484C33.7891 17.8008 34 18.1328 34 18.5C34 18.8672 33.7891 19.1992 33.457 19.3516L24.918 23.2969C24.3359 23.5664 23.6641 23.5664 23.082 23.2969L14.543 19.3516C14.2109 19.1953 14 18.8633 14 18.5C14 18.1367 14.2109 17.8008 14.543 17.6484L23.082 13.7031ZM31.3789 21.6875L33.457 22.6484C33.7891 22.8008 34 23.1328 34 23.5C34 23.8672 33.7891 24.1992 33.457 24.3516L24.918 28.2969C24.3359 28.5664 23.6641 28.5664 23.082 28.2969L14.543 24.3516C14.2109 24.1953 14 23.8633 14 23.5C14 23.1367 14.2109 22.8008 14.543 22.6484L16.6211 21.6875L22.5586 24.4297C23.4727 24.8516 24.5273 24.8516 25.4414 24.4297L31.3789 21.6875ZM25.4414 29.4297L31.3789 26.6875L33.457 27.6484C33.7891 27.8008 34 28.1328 34 28.5C34 28.8672 33.7891 29.1992 33.457 29.3516L24.918 33.2969C24.3359 33.5664 23.6641 33.5664 23.082 33.2969L14.543 29.3516C14.2109 29.1953 14 28.8633 14 28.5C14 28.1367 14.2109 27.8008 14.543 27.6484L16.6211 26.6875L22.5586 29.4297C23.4727 29.8516 24.5273 29.8516 25.4414 29.4297Z" fill="white"/>
</g>
<defs>
<linearGradient id="paint0_linear_1_536" x1="0" y1="24" x2="48" y2="24" gradientUnits="userSpaceOnUse">
<stop stop-color="#FCA311"/>
<stop offset="1" stop-color="#FACC15"/>
</linearGradient>
<clipPath id="clip0_1_536">
<rect width="22.5" height="20" fill="white" transform="translate(12.75 13.5)"/>
</clipPath>
</defs>
</svg>
