<svg width="48" height="48" viewBox="0 0 48 48" fill="none" xmlns="http://www.w3.org/2000/svg">
<path d="M0 24C0 10.7452 10.7452 0 24 0C37.2548 0 48 10.7452 48 24C48 37.2548 37.2548 48 24 48C10.7452 48 0 37.2548 0 24Z" fill="url(#paint0_linear_1_521)"/>
<path d="M15.25 14.75C15.9414 14.75 16.5 15.3086 16.5 16V29.125C16.5 29.4688 16.7812 29.75 17.125 29.75H32.75C33.4414 29.75 34 30.3086 34 31C34 31.6914 33.4414 32.25 32.75 32.25H17.125C15.3984 32.25 14 30.8516 14 29.125V16C14 15.3086 14.5586 14.75 15.25 14.75ZM20.25 22.25C20.9414 22.25 21.5 22.8086 21.5 23.5V26C21.5 26.6914 20.9414 27.25 20.25 27.25C19.5586 27.25 19 26.6914 19 26V23.5C19 22.8086 19.5586 22.25 20.25 22.25ZM25.25 19.75V26C25.25 26.6914 24.6914 27.25 24 27.25C23.3086 27.25 22.75 26.6914 22.75 26V19.75C22.75 19.0586 23.3086 18.5 24 18.5C24.6914 18.5 25.25 19.0586 25.25 19.75ZM27.75 21C28.4414 21 29 21.5586 29 22.25V26C29 26.6914 28.4414 27.25 27.75 27.25C27.0586 27.25 26.5 26.6914 26.5 26V22.25C26.5 21.5586 27.0586 21 27.75 21ZM32.75 17.25V26C32.75 26.6914 32.1914 27.25 31.5 27.25C30.8086 27.25 30.25 26.6914 30.25 26V17.25C30.25 16.5586 30.8086 16 31.5 16C32.1914 16 32.75 16.5586 32.75 17.25Z" fill="white"/>
<defs>
<linearGradient id="paint0_linear_1_521" x1="0" y1="24" x2="48" y2="24" gradientUnits="userSpaceOnUse">
<stop stop-color="#14213D"/>
<stop offset="1" stop-color="#1E3A8A"/>
</linearGradient>
</defs>
</svg>
