<svg width="48" height="48" viewBox="0 0 48 48" fill="none" xmlns="http://www.w3.org/2000/svg">
<path d="M0 24C0 10.7452 10.7452 0 24 0C37.2548 0 48 10.7452 48 24C48 37.2548 37.2548 48 24 48C10.7452 48 0 37.2548 0 24Z" fill="url(#paint0_linear_1_524)"/>
<g clip-path="url(#clip0_1_524)">
<path d="M32.75 16.625V18.5C32.75 20.2266 28.832 21.625 24 21.625C19.168 21.625 15.25 20.2266 15.25 18.5V16.625C15.25 14.8984 19.168 13.5 24 13.5C28.832 13.5 32.75 14.8984 32.75 16.625ZM30.6094 21.8867C31.4219 21.5977 32.168 21.2266 32.75 20.7695V24.75C32.75 26.4766 28.832 27.875 24 27.875C19.168 27.875 15.25 26.4766 15.25 24.75V20.7695C15.832 21.2305 16.5781 21.5977 17.3906 21.8867C19.1445 22.5117 21.4805 22.875 24 22.875C26.5195 22.875 28.8555 22.5117 30.6094 21.8867ZM15.25 27.0195C15.832 27.4805 16.5781 27.8477 17.3906 28.1367C19.1445 28.7617 21.4805 29.125 24 29.125C26.5195 29.125 28.8555 28.7617 30.6094 28.1367C31.4219 27.8477 32.168 27.4766 32.75 27.0195V30.375C32.75 32.1016 28.832 33.5 24 33.5C19.168 33.5 15.25 32.1016 15.25 30.375V27.0195Z" fill="white"/>
</g>
<defs>
<linearGradient id="paint0_linear_1_524" x1="0" y1="24" x2="48" y2="24" gradientUnits="userSpaceOnUse">
<stop stop-color="#FCA311"/>
<stop offset="1" stop-color="#FACC15"/>
</linearGradient>
<clipPath id="clip0_1_524">
<rect width="17.5" height="20" fill="white" transform="translate(15.25 13.5)"/>
</clipPath>
</defs>
</svg>
